<svg xmlns="http://www.w3.org/2000/svg" xml:space="preserve" viewBox="0 200 520 100"><path style="fill: currentColor" d="M123.23 234.91c5.87 0 10.44 2.23 13.79 6.89 3.35 4.56 5.03 10.79 5.03 18.7 0 8.19-1.68 14.52-5.12 18.99-3.45 4.56-8.11 6.7-13.98 6.7s-10.34-2.05-13.7-6.33h-.93l-1.77 4.37c-.28.65-.93 1.02-1.58 1.02h-7.45c-.92 0-1.67-.74-1.68-1.66v-65.43c0-.92.74-1.67 1.66-1.68h10.07c.93 0 1.68.74 1.68 1.68v14.33c0 2.05-.19 5.3-.56 9.77h.56c3.08-4.84 7.83-7.35 13.98-7.35m-4.29 10.89c-3.26 0-5.78 1.02-7.36 3.07-1.49 2.05-2.33 5.49-2.33 10.14v1.49c0 5.31.75 9.12 2.33 11.35s4.1 3.44 7.55 3.44c2.7 0 5.03-1.3 6.62-3.91 1.58-2.51 2.42-6.33 2.42-11.07 0-4.84-.84-8.47-2.42-10.89-1.68-2.42-4.01-3.62-6.81-3.62m45.29 39.55h-10.06c-.92 0-1.67-.74-1.68-1.66v-46.07c0-.92.74-1.67 1.66-1.68h10.07c.93 0 1.68.74 1.68 1.68v45.97c.1.83-.74 1.76-1.67 1.76m36.81-9.96c1.96 0 4.29-.37 7.08-1.12.75-.19 1.4.37 1.4 1.12v7.72c0 .47-.28.84-.65 1.02-3.17 1.3-7.18 1.95-11.65 1.95-5.41 0-9.32-1.3-11.74-4.09-2.42-2.7-3.73-6.79-3.73-12.19v-23.73h-5.31c-.65 0-1.12-.46-1.12-1.12v-4.37c0-.09.09-.19.09-.28l7.36-4.37 3.63-9.68c.19-.47.56-.74 1.03-.74h6.71c.65 0 1.12.47 1.12 1.12v9.4h13.33c.28 0 .56.28.56.56v8.38c0 .65-.47 1.12-1.12 1.12h-12.67v23.64c0 1.86.56 3.35 1.58 4.19.93 1 2.42 1.47 4.1 1.47m62.71 9.96c-1.3 0-2.33-.84-2.89-2.05l-9.88-30.06c-.65-2.14-1.49-5.4-2.61-9.59h-.28l-.93 3.35-1.96 6.33-10.16 30.06c-.37 1.21-1.49 1.95-2.8 1.95-1.3 0-2.42-.84-2.8-2.14l-12.39-43.27c-.37-1.3.65-2.7 2.14-2.7h.28c.93 0 1.77.65 2.05 1.58l7.27 26.34c1.77 6.89 2.98 11.91 3.54 15.26h.28c1.68-6.89 2.98-11.45 3.82-13.77l9.41-27.55c.37-1.12 1.4-1.86 2.7-1.86 1.21 0 2.24.74 2.61 1.86l8.76 27.36c2.14 6.98 3.45 11.45 3.91 13.77h.28c.28-1.86 1.4-7.07 3.54-15.45l6.99-25.96c.28-.93 1.12-1.58 2.05-1.58a2.12 2.12 0 0 1 2.05 2.7l-11.74 43.27c-.37 1.3-1.49 2.14-2.89 2.14h-.35zm55.36 0c-.84 0-1.58-.65-1.68-1.49l-.84-6.14h-.47c-2.42 3.07-4.85 5.3-7.46 6.61-2.52 1.3-5.59 1.86-9.04 1.86-4.75 0-8.39-1.21-11-3.63-2.33-2.14-3.63-5.03-3.82-8.66-.37-4.84 1.68-9.49 5.59-12.19 4.01-2.61 9.6-4.19 17.15-4.19l9.13-.28v-3.16c0-4.65-.93-8-2.89-10.33s-4.85-3.44-8.95-3.44c-3.91 0-7.83.93-11.93 2.88-1.03.46-2.24 0-2.7-1.02-.47-1.02 0-2.23 1.02-2.61 4.66-1.86 9.23-2.89 13.88-2.89 5.31 0 9.23 1.4 11.93 4.19 2.61 2.7 3.91 7.07 3.91 12.75v30.25c-.06.56-.9 1.49-1.83 1.49m-19.29-3.17c5.22 0 9.23-1.49 12.11-4.37 2.98-2.89 4.47-7.07 4.47-12.19v-4.65l-8.39.37c-6.8.28-11.55 1.4-14.54 3.16-2.89 1.77-4.38 4.65-4.38 8.38 0 2.98.93 5.4 2.7 7.07 2.06 1.39 4.67 2.23 8.03 2.23m55.16-45.88c1.4 0 2.79.09 4.38.28 1.15.17 1.94 1.23 1.78 2.38 0 .01 0 .03-.01.04-.19 1.12-1.3 1.77-2.42 1.58-1.4-.19-2.8-.37-4.19-.37-4.1 0-7.46 1.77-10.06 5.21-2.61 3.44-3.91 7.91-3.91 13.12v24.38c0 1.21-.93 2.14-2.14 2.14s-2.14-.93-2.14-2.14v-43.74c0-1.02.84-1.86 1.86-1.86s1.86.74 1.86 1.77l.37 6.89h.28c1.96-3.54 4.1-6.05 6.34-7.44 2.13-1.49 4.83-2.24 8-2.24m32.8 0c3.45 0 6.52.65 9.04 1.86 2.61 1.21 4.85 3.44 6.8 6.51h.28c-.19-3.82-.28-7.35-.28-10.89v-15.17c0-1.21.93-2.14 2.14-2.14s2.14.93 2.14 2.14v65.05c0 .84-.65 1.49-1.49 1.49-.75 0-1.4-.56-1.49-1.4l-.93-6.05h-.37c-3.63 5.49-8.95 8.19-15.75 8.19-6.71 0-11.65-2.05-15.28-6.24-3.45-4.19-5.31-10.14-5.31-18.05 0-8.28 1.68-14.61 5.22-19.08 3.54-3.98 8.58-6.22 15.28-6.22m0 4c-5.31 0-9.23 1.86-11.93 5.58-2.61 3.63-3.91 8.93-3.91 16.01 0 13.59 5.31 20.38 15.93 20.38 5.5 0 9.41-1.58 11.93-4.75 2.61-3.16 3.82-8.38 3.82-15.63v-.74c0-7.45-1.21-12.75-3.82-15.91-2.42-3.35-6.42-4.94-12.02-4.94m55.82 45.88c-6.99 0-12.39-2.14-16.4-6.51-3.91-4.28-5.87-10.33-5.87-18.05s1.86-13.87 5.68-18.43c3.82-4.65 8.85-6.98 15.28-6.98 5.59 0 10.16 1.96 13.33 5.86 3.35 3.91 4.94 9.31 4.94 16.1v3.54H425.9c.09 6.61 1.58 11.63 4.66 15.17 3.07 3.54 7.36 5.12 13.05 5.12 2.7 0 5.22-.19 7.27-.56 1.49-.28 3.26-.74 5.41-1.49 1.21-.46 2.52.47 2.52 1.77 0 .74-.46 1.49-1.21 1.77-2.24.93-4.38 1.49-6.34 1.86-2.35.65-4.86.83-7.66.83m-1.3-45.97c-4.66 0-8.39 1.49-11.18 4.56-2.8 2.98-4.38 7.45-4.94 13.12H456c0-5.49-1.21-9.96-3.63-13.03-2.43-3.07-5.79-4.65-10.07-4.65m67.46 45.14c-1.21 0-2.14-.93-2.14-2.14v-29.13c0-4.84-1.03-8.38-2.98-10.52-2.14-2.14-5.22-3.35-9.5-3.35-5.78 0-9.97 1.4-12.58 4.37-2.61 2.89-4.1 7.63-4.1 14.05v24.38c0 1.21-.93 2.14-2.14 2.14s-2.14-.93-2.14-2.14v-43.83c0-1.12.84-1.95 1.96-1.95 1.03 0 1.77.74 1.96 1.68l.56 4.84h.28c3.17-5.03 8.67-7.54 16.68-7.54 10.9 0 16.4 5.86 16.4 17.59v29.22c-.11 1.3-1.14 2.33-2.26 2.33m-350.47-69.61c-4.38 0-7.92 3.35-7.92 7.54v.74c0 4.09 3.63 7.54 7.92 7.54s7.92-3.44 7.92-7.54v-.65c0-4.28-3.63-7.63-7.92-7.63M56.57 259.66v-33.28H33.28v59.12c4.13-2.18 7.82-4.56 11.08-7.12q12.21-9.57 12.21-18.72m9.98-39.93v39.93c0 2.98-.58 5.94-1.74 8.86-1.16 2.93-2.6 5.53-4.31 7.8-1.72 2.27-3.76 4.48-6.14 6.63-2.37 2.15-4.57 3.93-6.58 5.35a83 83 0 0 1-6.29 4.03c-2.18 1.26-3.74 2.12-4.65 2.57-.73.36-1.47.71-2.21 1.04-.42.21-.88.32-1.35.31-.49 0-.94-.1-1.35-.31-.74-.33-1.48-.68-2.21-1.04-.92-.45-2.47-1.31-4.65-2.57a81 81 0 0 1-6.29-4.03c-2.01-1.42-4.2-3.21-6.58-5.36-2.37-2.15-4.42-4.36-6.14-6.63s-3.15-4.87-4.32-7.8C.58 265.6 0 262.64 0 259.66v-39.93q0-1.35.99-2.34t2.34-.99h59.9q1.35 0 2.34.99c.65.66.98 1.44.98 2.34"/></svg>